<?xml version="1.0" encoding="UTF-8"?>
<svg id="Layer_2" data-name="Layer 2" xmlns="http://www.w3.org/2000/svg" viewBox="0 0 751.51 105.22">
  <defs>
    <style>
      .cls-1 {
        letter-spacing: 0em;
      }

      .cls-2 {
        stroke-width: 0px;
      }

      .cls-2, .cls-3 {
        fill: #c8a165;
      }

      .cls-4 {
        letter-spacing: -.03em;
      }

      .cls-3 {
        font-family: Montserrat-SemiBold, Montserrat;
        font-size: 85.45px;
        font-weight: 600;
      }
    </style>
  </defs>
  <g id="Layer_1-2" data-name="Layer 1">
    <g>
      <path class="cls-2" d="m107.03,52.03c0-.96-.38-1.88-1.06-2.56l-9.13-9.13-3.72-3.72-7.2-7.2L58.61,2.11l-.03-.03c-2.78-2.78-7.28-2.78-10.06,0l-.1.1-27.58,27.58-7.2,7.2-3.45,3.45L1.06,49.54c-.68.68-1.06,1.6-1.06,2.56v11.68h1.22l-1.22,1.22v21.87c0,5.02,4.07,9.09,9.09,9.09h23.44c.8,0,1.57-.32,2.13-.88l18.54-18.54,5.4,5.4,3.84,3.84,9.3,9.3c.57.57,1.33.88,2.13.88h24.05c5.02,0,9.09-4.07,9.09-9.09v-21.94l-1.15-1.15h1.15v-11.76Zm-10.19,33.76h-19.99l-11.81-11.81h19.26v-10.18h-18.34l12.64-12.64-7.2-7.2-12.8,12.8v-18.18h-10.19v18.8l-13.3-13.3-6.97,7.43,12.31,12.31h-17.96v10.18h18.89l-11.81,11.81H10.19v-30.97l10.65-10.65,7.2-7.2,25.51-25.51,32.37,32.37,10.92,10.92v31.04Z"/>
      <text class="cls-3" transform="translate(128.83 82.58)"><tspan x="0" y="0">ARI</tspan><tspan class="cls-1" x="153.73" y="0">S</tspan><tspan class="cls-4" x="206.62" y="0">T</tspan><tspan x="255.07" y="0">A HOME</tspan></text>
    </g>
  </g>
</svg>